<svg xmlns="http://www.w3.org/2000/svg" viewBox="0 0 256 256">
  <defs>
    <linearGradient id="bg" x1="0" y1="0" x2="1" y2="1">
      <stop offset="0%" stop-color="#f7faf7"/>
      <stop offset="100%" stop-color="#eef5ee"/>
    </linearGradient>
    <linearGradient id="wool" x1="0" y1="0" x2="1" y2="1">
      <stop offset="0%" stop-color="#fffdf7"/>
      <stop offset="100%" stop-color="#f1ece0"/>
    </linearGradient>
    <linearGradient id="face" x1="0" y1="0" x2="1" y2="1">
      <stop offset="0%" stop-color="#d8b38b"/>
      <stop offset="100%" stop-color="#bf8d62"/>
    </linearGradient>
  </defs>

  <rect width="256" height="256" rx="52" fill="url(#bg)"/>
  <circle cx="128" cy="128" r="92" fill="#ffffff" stroke="#dce7dc" stroke-width="6"/>

  <g transform="translate(8 4)">
    <ellipse cx="116" cy="138" rx="58" ry="43" fill="url(#wool)" stroke="#d9d1c2" stroke-width="5"/>
    <circle cx="84" cy="122" r="17" fill="#fffaf0" stroke="#d9d1c2" stroke-width="4"/>
    <circle cx="105" cy="103" r="16" fill="#fffaf0" stroke="#d9d1c2" stroke-width="4"/>
    <circle cx="132" cy="100" r="17" fill="#fffaf0" stroke="#d9d1c2" stroke-width="4"/>
    <circle cx="154" cy="113" r="15" fill="#fffaf0" stroke="#d9d1c2" stroke-width="4"/>
    <circle cx="155" cy="144" r="16" fill="#fffaf0" stroke="#d9d1c2" stroke-width="4"/>
    <circle cx="131" cy="158" r="17" fill="#fffaf0" stroke="#d9d1c2" stroke-width="4"/>
    <circle cx="101" cy="160" r="16" fill="#fffaf0" stroke="#d9d1c2" stroke-width="4"/>

    <ellipse cx="175" cy="121" rx="28" ry="23" fill="url(#face)" stroke="#a8754c" stroke-width="5"/>
    <path d="M188 94l14-17 6 16-8 12z" fill="#bf8d62" stroke="#a8754c" stroke-width="4" stroke-linejoin="round"/>
    <path d="M163 96l-13-18-7 15 8 14z" fill="#bf8d62" stroke="#a8754c" stroke-width="4" stroke-linejoin="round"/>
    <path d="M149 118c-16-7-21-22-19-35" fill="none" stroke="#a8754c" stroke-width="6" stroke-linecap="round"/>
    <circle cx="186" cy="118" r="4.5" fill="#3a2b23"/>
    <circle cx="168" cy="118" r="4.5" fill="#3a2b23"/>
    <ellipse cx="177" cy="129" rx="7" ry="5" fill="#8e5c3d"/>
    <path d="M171 138c5 5 11 5 16 0" fill="none" stroke="#8e5c3d" stroke-width="3.5" stroke-linecap="round"/>

    <path d="M93 177v28" stroke="#87624a" stroke-width="7" stroke-linecap="round"/>
    <path d="M120 179v29" stroke="#87624a" stroke-width="7" stroke-linecap="round"/>
    <path d="M147 177v29" stroke="#87624a" stroke-width="7" stroke-linecap="round"/>
    <path d="M173 173v30" stroke="#87624a" stroke-width="7" stroke-linecap="round"/>

    <path d="M65 139c-7 0-12 4-12 10 0 7 6 10 14 10" fill="none" stroke="#a8754c" stroke-width="5" stroke-linecap="round"/>
  </g>
</svg>
